<?xml version="1.0" standalone="no"?><!DOCTYPE svg PUBLIC "-//W3C//DTD SVG 1.1//EN" "http://www.w3.org/Graphics/SVG/1.1/DTD/svg11.dtd"><svg t="1576743667090" class="icon" viewBox="0 0 1024 1024" version="1.1" xmlns="http://www.w3.org/2000/svg" p-id="7537" xmlns:xlink="http://www.w3.org/1999/xlink" width="50" height="50"><defs><style type="text/css"></style></defs><path d="M810.666667 149.333333H213.333333c-23.466667 0-42.666667 19.2-42.666666 42.666667v128c0 23.466667 19.2 42.666667 42.666666 42.666667h597.333334c23.466667 0 42.666667-19.2 42.666666-42.666667V192c0-23.466667-19.2-42.666667-42.666666-42.666667zM810.666667 405.333333H213.333333c-23.466667 0-42.666667 19.2-42.666666 42.666667v128c0 23.466667 19.2 42.666667 42.666666 42.666667h597.333334c23.466667 0 42.666667-19.2 42.666666-42.666667v-128c0-23.466667-19.2-42.666667-42.666666-42.666667zM810.666667 661.333333H213.333333c-23.466667 0-42.666667 19.2-42.666666 42.666667v128c0 23.466667 19.2 42.666667 42.666666 42.666667h597.333334c23.466667 0 42.666667-19.2 42.666666-42.666667v-128c0-23.466667-19.2-42.666667-42.666666-42.666667z" fill="#D1C4E9" p-id="7538"></path><path d="M810.666667 810.666667m-213.333334 0a213.333333 213.333333 0 1 0 426.666667 0 213.333333 213.333333 0 1 0-426.666667 0Z" fill="#43A047" p-id="7539"></path><path d="M906.666667 710.4L785.066667 832l-57.6-57.6-44.8 46.933333 102.4 102.4 166.4-166.4z" fill="#DCEDC8" p-id="7540"></path></svg>