<?xml version="1.0" standalone="no"?><!DOCTYPE svg PUBLIC "-//W3C//DTD SVG 1.1//EN" "http://www.w3.org/Graphics/SVG/1.1/DTD/svg11.dtd"><svg t="1579423954414" class="icon" viewBox="0 0 1024 1024" version="1.1" xmlns="http://www.w3.org/2000/svg" p-id="1788" xmlns:xlink="http://www.w3.org/1999/xlink" width="32" height="32"><defs><style type="text/css"></style></defs><path d="M670.62528 711.899955h-316.933062c-57.361215 0-103.363076-14.287388-127.492886-71.40166H175.999449c28.292555 71.401661 94.931753 114.228546 177.692769 114.228546h316.545009c82.902126 0 149.541324-42.826885 177.728047-114.228546h-49.847108C773.988356 697.612568 728.021773 711.899955 670.62528 711.899955zM353.727495 312.100045H670.62528c57.361215 0 103.363076 14.287388 127.492886 71.40166h49.847108c-28.186723-71.401661-94.825921-114.228546-177.728047-114.228546h-316.545009c-82.761016 0-149.400214 42.826885-177.692769 114.228546h50.23516c24.12981-57.14955 70.131671-71.401661 127.492886-71.40166zM313.616977 513.569849c0-47.095463-39.193303-85.406828-87.382368-85.406828H151.375754c-48.189065 0-87.382368 38.311365-87.382369 85.406828s39.193303 85.406828 87.382369 85.406828h74.894133c48.189065 0 87.347091-38.346643 87.34709-85.406828z m-207.996141 0c0-24.658973 20.531505-44.73187 45.754918-44.731871h74.894133c25.223413 0 45.754918 20.072898 45.754917 44.731871s-20.531505 44.73187-45.754917 44.73187H151.375754c-25.25869 0-45.754918-20.072898-45.754918-44.73187z m416.73311-22.471768c0-34.71306-28.892273-62.970338-64.416715-62.970338h-124.882351v171.342819H374.647053v-83.325456l79.44493 83.325456h56.867331l-43.779378-45.896028c31.18531-4.409688 55.17401-30.726703 55.17401-62.476453z m-64.416715 22.471768H374.647053V468.837978h83.290178c12.594068 0 22.789265 10.089365 22.789265 22.436491 0.035278 12.27657-10.195198 22.29538-22.789265 22.29538z m170.249216-44.767148h86.500431l41.592173-40.674958h-128.092604c-48.189065 0-87.382368 38.311365-87.382368 85.406828s39.193303 85.406828 87.382368 85.406828h85.442106l41.592173-40.674957h-127.069556c-25.25869 0-45.754918-20.072898-45.754918-44.731871 0.035278-24.658973 20.566783-44.73187 45.790195-44.73187z m188.487684 81.561581v-122.201261h-49.917663v171.025321h143.297206l49.917663-48.788783H816.674131z" fill="#d81e06" p-id="1789"></path></svg>