<?xml version="1.0" standalone="no"?><!DOCTYPE svg PUBLIC "-//W3C//DTD SVG 1.1//EN" "http://www.w3.org/Graphics/SVG/1.1/DTD/svg11.dtd"><svg t="1576741515083" class="icon" viewBox="0 0 1024 1024" version="1.1" xmlns="http://www.w3.org/2000/svg" p-id="5460" xmlns:xlink="http://www.w3.org/1999/xlink" width="50" height="50"><defs><style type="text/css"></style></defs><path d="M1023.2 157.3c0.1-1.6 0.2-3.1 0.2-4.7 0-26.1-16.6-49.7-49.3-70.2-26.5-16.6-63.9-31.4-111-43.8C768.9 13.7 644.3 0 512 0S255.1 13.7 161 38.6C113.9 51.1 76.6 65.8 50 82.4 17.3 103 0.7 126.6 0.7 152.6v2.3H0.6v236.6c0 1.5-0.1 2.9 0 4.4v477.5h0.2c0.9 25.1 17.4 48 49.3 68 26.5 16.6 63.9 31.4 111 43.8 89.7 23.7 207.1 37.3 332.5 38.5V977h-0.1c-121.3-1.2-234.5-14.2-320.4-37-41.9-11.2-75.7-24.3-98-38.3-17.4-10.8-27.4-21.8-27.4-30.3h-0.1V700.3c0.8 0.5 1.6 1.1 2.5 1.6 26.5 16.6 63.9 31.4 111 43.8 89.5 23.7 207 37.3 332.5 38.5v-47C372.3 736 259 723 173.2 700.3c-41.9-11.2-75.9-24.3-98-38.3-17.4-10.9-27.4-22-27.4-30.4h-0.1c0-0.2 0.1-1.1 0.1-1.8v-0.4h-0.1v-167c20.9 13.4 42.6 22.3 64.2 30.1 21.7 7.7 43.7 13.9 65.6 19.1 22.1 5.3 44.1 9.6 66.2 13.4 44.3 7.5 88.7 12.6 133.2 15.9 44.5 3.3 89 4.9 133.5 4.9s89-1.4 133.5-4.7 88.9-8.2 133.2-15.6c22.2-3.8 44.3-8.1 66.2-13.3 22.1-5.2 44-11.3 65.8-18.8 10.9-3.8 21.7-8 32.5-12.8 10.8-4.7 21.5-10.2 32.1-16.7 0.9-0.6 1.9-1.2 2.8-1.8v111.1h47V157.3h-0.3z m-46.6 238.8h-0.2c-0.2 1.2-0.6 2.5-1.3 4.1-1.1 2.5-3.1 5.2-5.5 8-4.9 5.8-12.4 11.3-20.4 16.3-4.1 2.5-8.3 4.8-12.8 7.2-4.5 2.2-8.9 4.5-13.6 6.5-9.3 4.1-19 7.9-28.9 11.3-19.7 6.9-40.3 12.6-61.1 17.5-20.8 4.9-41.9 9-63.2 12.6-42.5 7-85.6 11.9-128.8 15-43.2 3.2-86.7 4.6-130.1 4.6-43.4-0.1-86.9-1.6-130.1-4.8-43.2-3.3-86.3-8.2-128.8-15.4-21.3-3.6-42.3-7.9-63.1-12.8-20.8-4.9-41.2-10.7-60.9-17.7-9.9-3.5-19.5-7.3-28.8-11.5-4.6-2.2-9.2-4.3-13.5-6.7-2.2-1.1-4.3-2.3-6.5-3.5-2-1.3-4.1-2.5-6.1-3.8-8-5-15-10.8-19.6-16.4-2.3-2.7-3.9-5.4-4.8-7.6-0.8-2.2-0.9-3.9-0.9-5.6V221.3c0.8 0.5 1.6 1.1 2.5 1.6 26.5 16.6 63.9 31.4 111 43.8 94.1 24.9 218.6 38.6 351 38.6s256.9-13.7 351-38.6c47.1-12.4 84.4-27.1 111-43.8 0.8-0.5 1.7-1.1 2.5-1.6v174.8z m-27.4-212.9c-22.3 14-56.2 27.1-98.2 38.3-90.3 24-210.6 37.1-339 37.1s-248.7-13.3-339-37.1c-42-11.2-75.9-24.3-98.2-38.3-17.4-10.9-27.4-22-27.4-30.4 0.1-8.5 10-19.5 27.4-30.5C97.1 108.3 131 95.2 173 84c90.3-23.9 210.6-37 339-37s248.7 13.2 339 37.1c42 11.2 75.9 24.3 98.2 38.3 17.4 10.9 27.4 22 27.4 30.4 0 8.5-10 19.5-27.4 30.4z" p-id="5461" fill="#1296db"></path><path d="M970 762.5H797.5V590c0-9.7-7.8-17.5-17.5-17.5s-17.5 7.8-17.5 17.5v172.5H590c-9.7 0-17.5 7.8-17.5 17.5s7.8 17.5 17.5 17.5h172.5V970c0 9.7 7.8 17.5 17.5 17.5s17.5-7.8 17.5-17.5V797.5H970c9.7 0 17.5-7.8 17.5-17.5s-7.8-17.5-17.5-17.5z" p-id="5462" fill="#1296db"></path></svg>